<svg width="24" height="154" viewBox="0 0 24 154" fill="none" xmlns="http://www.w3.org/2000/svg">
<path d="M13.5 2C13.5 1.17157 12.8284 0.5 12 0.5C11.1716 0.5 10.5 1.17157 10.5 2H12H13.5ZM10.9393 153.061C11.5251 153.646 12.4749 153.646 13.0607 153.061L22.6066 143.515C23.1924 142.929 23.1924 141.979 22.6066 141.393C22.0208 140.808 21.0711 140.808 20.4853 141.393L12 149.879L3.51472 141.393C2.92893 140.808 1.97919 140.808 1.3934 141.393C0.807611 141.979 0.807611 142.929 1.3934 143.515L10.9393 153.061ZM12 2H10.5L10.5 152H12H13.5L13.5 2H12Z" fill="#22211F"/>
</svg>
